<svg width="64" height="64" viewBox="0 0 64 64" fill="none" xmlns="http://www.w3.org/2000/svg">
<path d="M63.5 14C63.5 11.6131 62.5518 9.3239 60.864 7.63608C59.1761 5.94825 56.8869 5.00004 54.5 5.00004H52.25V2.81332C52.25 1.60254 51.3191 0.56332 50.1083 0.502851C49.8041 0.488194 49.5 0.535454 49.2146 0.641769C48.9292 0.748084 48.6683 0.91124 48.4478 1.12135C48.2273 1.33146 48.0518 1.58415 47.9318 1.86411C47.8119 2.14407 47.75 2.44546 47.75 2.75004V5.00004H16.25V2.81332C16.25 1.60254 15.3191 0.56332 14.1083 0.502851C13.8041 0.488194 13.5 0.535454 13.2146 0.641769C12.9292 0.748084 12.6683 0.91124 12.4478 1.12135C12.2273 1.33146 12.0518 1.58415 11.9318 1.86411C11.8119 2.14407 11.75 2.44546 11.75 2.75004V5.00004H9.5C7.11305 5.00004 4.82387 5.94825 3.13604 7.63608C1.44821 9.3239 0.5 11.6131 0.5 14V15.6875C0.5 15.8367 0.559263 15.9798 0.664753 16.0853C0.770242 16.1908 0.913316 16.25 1.0625 16.25H62.9375C63.0867 16.25 63.2298 16.1908 63.3352 16.0853C63.4407 15.9798 63.5 15.8367 63.5 15.6875V14ZM0.5 54.5C0.5 56.887 1.44821 59.1762 3.13604 60.864C4.82387 62.5518 7.11305 63.5 9.5 63.5H54.5C56.8869 63.5 59.1761 62.5518 60.864 60.864C62.5518 59.1762 63.5 56.887 63.5 54.5V21.1719C63.5 21.06 63.4556 20.9527 63.3764 20.8736C63.2973 20.7945 63.19 20.75 63.0781 20.75H0.921875C0.809987 20.75 0.702681 20.7945 0.623565 20.8736C0.544448 20.9527 0.5 21.06 0.5 21.1719V54.5ZM48.875 25.25C49.5425 25.25 50.195 25.448 50.75 25.8188C51.3051 26.1897 51.7376 26.7168 51.9931 27.3335C52.2485 27.9502 52.3154 28.6288 52.1852 29.2835C52.0549 29.9382 51.7335 30.5395 51.2615 31.0115C50.7895 31.4835 50.1881 31.805 49.5334 31.9352C48.8787 32.0654 48.2001 31.9986 47.5834 31.7431C46.9667 31.4877 46.4396 31.0551 46.0688 30.5001C45.6979 29.9451 45.5 29.2926 45.5 28.625C45.5 27.7299 45.8556 26.8715 46.4885 26.2386C47.1215 25.6056 47.9799 25.25 48.875 25.25ZM48.875 36.5C49.5425 36.5 50.195 36.698 50.75 37.0688C51.3051 37.4397 51.7376 37.9668 51.9931 38.5835C52.2485 39.2002 52.3154 39.8788 52.1852 40.5335C52.0549 41.1882 51.7335 41.7895 51.2615 42.2615C50.7895 42.7335 50.1881 43.055 49.5334 43.1852C48.8787 43.3154 48.2001 43.2486 47.5834 42.9931C46.9667 42.7377 46.4396 42.3051 46.0688 41.7501C45.6979 41.1951 45.5 40.5425 45.5 39.875C45.5 38.9799 45.8556 38.1215 46.4885 37.4886C47.1215 36.8556 47.9799 36.5 48.875 36.5ZM37.625 25.25C38.2925 25.25 38.945 25.448 39.5 25.8188C40.0551 26.1897 40.4876 26.7168 40.7431 27.3335C40.9985 27.9502 41.0654 28.6288 40.9352 29.2835C40.8049 29.9382 40.4835 30.5395 40.0115 31.0115C39.5395 31.4835 38.9381 31.805 38.2834 31.9352C37.6287 32.0654 36.9501 31.9986 36.3334 31.7431C35.7167 31.4877 35.1896 31.0551 34.8188 30.5001C34.4479 29.9451 34.25 29.2926 34.25 28.625C34.25 27.7299 34.6056 26.8715 35.2385 26.2386C35.8715 25.6056 36.7299 25.25 37.625 25.25ZM37.625 36.5C38.2925 36.5 38.945 36.698 39.5 37.0688C40.0551 37.4397 40.4876 37.9668 40.7431 38.5835C40.9985 39.2002 41.0654 39.8788 40.9352 40.5335C40.8049 41.1882 40.4835 41.7895 40.0115 42.2615C39.5395 42.7335 38.9381 43.055 38.2834 43.1852C37.6287 43.3154 36.9501 43.2486 36.3334 42.9931C35.7167 42.7377 35.1896 42.3051 34.8188 41.7501C34.4479 41.1951 34.25 40.5425 34.25 39.875C34.25 38.9799 34.6056 38.1215 35.2385 37.4886C35.8715 36.8556 36.7299 36.5 37.625 36.5ZM37.625 47.75C38.2925 47.75 38.945 47.948 39.5 48.3188C40.0551 48.6897 40.4876 49.2168 40.7431 49.8335C40.9985 50.4502 41.0654 51.1288 40.9352 51.7835C40.8049 52.4382 40.4835 53.0395 40.0115 53.5115C39.5395 53.9835 38.9381 54.305 38.2834 54.4352C37.6287 54.5654 36.9501 54.4986 36.3334 54.2431C35.7167 53.9877 35.1896 53.5551 34.8188 53.0001C34.4479 52.4451 34.25 51.7925 34.25 51.125C34.25 50.2299 34.6056 49.3715 35.2385 48.7386C35.8715 48.1056 36.7299 47.75 37.625 47.75ZM26.375 36.5C27.0425 36.5 27.695 36.698 28.25 37.0688C28.8051 37.4397 29.2376 37.9668 29.4931 38.5835C29.7485 39.2002 29.8154 39.8788 29.6852 40.5335C29.5549 41.1882 29.2335 41.7895 28.7615 42.2615C28.2895 42.7335 27.6881 43.055 27.0334 43.1852C26.3787 43.3154 25.7001 43.2486 25.0834 42.9931C24.4667 42.7377 23.9396 42.3051 23.5688 41.7501C23.1979 41.1951 23 40.5425 23 39.875C23 38.9799 23.3556 38.1215 23.9885 37.4886C24.6214 36.8556 25.4799 36.5 26.375 36.5ZM26.375 47.75C27.0425 47.75 27.695 47.948 28.25 48.3188C28.8051 48.6897 29.2376 49.2168 29.4931 49.8335C29.7485 50.4502 29.8154 51.1288 29.6852 51.7835C29.5549 52.4382 29.2335 53.0395 28.7615 53.5115C28.2895 53.9835 27.6881 54.305 27.0334 54.4352C26.3787 54.5654 25.7001 54.4986 25.0834 54.2431C24.4667 53.9877 23.9396 53.5551 23.5688 53.0001C23.1979 52.4451 23 51.7925 23 51.125C23 50.2299 23.3556 49.3715 23.9885 48.7386C24.6214 48.1056 25.4799 47.75 26.375 47.75ZM15.125 36.5C15.7925 36.5 16.445 36.698 17 37.0688C17.5551 37.4397 17.9876 37.9668 18.2431 38.5835C18.4985 39.2002 18.5654 39.8788 18.4352 40.5335C18.3049 41.1882 17.9835 41.7895 17.5115 42.2615C17.0395 42.7335 16.4381 43.055 15.7834 43.1852C15.1287 43.3154 14.4501 43.2486 13.8334 42.9931C13.2167 42.7377 12.6896 42.3051 12.3188 41.7501C11.9479 41.1951 11.75 40.5425 11.75 39.875C11.75 38.9799 12.1056 38.1215 12.7385 37.4886C13.3714 36.8556 14.2299 36.5 15.125 36.5ZM15.125 47.75C15.7925 47.75 16.445 47.948 17 48.3188C17.5551 48.6897 17.9876 49.2168 18.2431 49.8335C18.4985 50.4502 18.5654 51.1288 18.4352 51.7835C18.3049 52.4382 17.9835 53.0395 17.5115 53.5115C17.0395 53.9835 16.4381 54.305 15.7834 54.4352C15.1287 54.5654 14.4501 54.4986 13.8334 54.2431C13.2167 53.9877 12.6896 53.5551 12.3188 53.0001C11.9479 52.4451 11.75 51.7925 11.75 51.125C11.75 50.2299 12.1056 49.3715 12.7385 48.7386C13.3714 48.1056 14.2299 47.75 15.125 47.75Z" fill="#84649B"/>
</svg>
